<mxfile host="app.diagrams.net" agent="Mozilla/5.0 (Macintosh; Intel Mac OS X 10_15_7) AppleWebKit/605.1.15 (KHTML, like Gecko) Version/17.5 Safari/605.1.15" version="24.7.6">
  <diagram name="Page-1" id="LwCmUqF6IoyyQt3CyeHW">
    <mxGraphModel dx="954" dy="622" grid="1" gridSize="10" guides="1" tooltips="1" connect="1" arrows="1" fold="1" page="1" pageScale="1" pageWidth="827" pageHeight="1169" math="0" shadow="0">
      <root>
        <mxCell id="0" />
        <mxCell id="1" parent="0" />
        <mxCell id="KAnZ7Fa2tKtf9aKGgKf9-2" value="" style="edgeStyle=orthogonalEdgeStyle;rounded=0;orthogonalLoop=1;jettySize=auto;html=1;" edge="1" parent="1" source="KAnZ7Fa2tKtf9aKGgKf9-5" target="KAnZ7Fa2tKtf9aKGgKf9-9">
          <mxGeometry relative="1" as="geometry" />
        </mxCell>
        <mxCell id="KAnZ7Fa2tKtf9aKGgKf9-3" value="" style="edgeStyle=orthogonalEdgeStyle;rounded=0;orthogonalLoop=1;jettySize=auto;html=1;" edge="1" parent="1" source="KAnZ7Fa2tKtf9aKGgKf9-5" target="KAnZ7Fa2tKtf9aKGgKf9-18">
          <mxGeometry relative="1" as="geometry" />
        </mxCell>
        <mxCell id="KAnZ7Fa2tKtf9aKGgKf9-4" value="" style="edgeStyle=orthogonalEdgeStyle;rounded=0;orthogonalLoop=1;jettySize=auto;html=1;" edge="1" parent="1" source="KAnZ7Fa2tKtf9aKGgKf9-5" target="KAnZ7Fa2tKtf9aKGgKf9-41">
          <mxGeometry relative="1" as="geometry" />
        </mxCell>
        <mxCell id="KAnZ7Fa2tKtf9aKGgKf9-5" value="Vulnerability MindMap" style="ellipse;whiteSpace=wrap;html=1;aspect=fixed;fillColor=#fa6800;fontColor=#000000;strokeColor=#C73500;" vertex="1" parent="1">
          <mxGeometry x="329" y="280" width="140" height="140" as="geometry" />
        </mxCell>
        <mxCell id="KAnZ7Fa2tKtf9aKGgKf9-6" value="" style="edgeStyle=orthogonalEdgeStyle;rounded=0;orthogonalLoop=1;jettySize=auto;html=1;" edge="1" parent="1" source="KAnZ7Fa2tKtf9aKGgKf9-9" target="KAnZ7Fa2tKtf9aKGgKf9-10">
          <mxGeometry relative="1" as="geometry" />
        </mxCell>
        <mxCell id="KAnZ7Fa2tKtf9aKGgKf9-7" value="" style="edgeStyle=orthogonalEdgeStyle;rounded=0;orthogonalLoop=1;jettySize=auto;html=1;" edge="1" parent="1" source="KAnZ7Fa2tKtf9aKGgKf9-9" target="KAnZ7Fa2tKtf9aKGgKf9-12">
          <mxGeometry relative="1" as="geometry" />
        </mxCell>
        <mxCell id="KAnZ7Fa2tKtf9aKGgKf9-8" value="" style="edgeStyle=orthogonalEdgeStyle;rounded=0;orthogonalLoop=1;jettySize=auto;html=1;" edge="1" parent="1" source="KAnZ7Fa2tKtf9aKGgKf9-9" target="KAnZ7Fa2tKtf9aKGgKf9-13">
          <mxGeometry relative="1" as="geometry" />
        </mxCell>
        <mxCell id="KAnZ7Fa2tKtf9aKGgKf9-9" value="&lt;b&gt;XSS&lt;/b&gt;" style="ellipse;whiteSpace=wrap;html=1;aspect=fixed;fillColor=#1ba1e2;fontColor=#ffffff;strokeColor=#006EAF;" vertex="1" parent="1">
          <mxGeometry x="384" y="210" width="30" height="30" as="geometry" />
        </mxCell>
        <mxCell id="KAnZ7Fa2tKtf9aKGgKf9-10" value="&lt;b&gt;R-XSS&lt;/b&gt;" style="whiteSpace=wrap;html=1;" vertex="1" parent="1">
          <mxGeometry x="364.5" y="170" width="69" height="20" as="geometry" />
        </mxCell>
        <mxCell id="KAnZ7Fa2tKtf9aKGgKf9-11" value="" style="edgeStyle=orthogonalEdgeStyle;rounded=0;orthogonalLoop=1;jettySize=auto;html=1;" edge="1" parent="1" source="KAnZ7Fa2tKtf9aKGgKf9-12" target="KAnZ7Fa2tKtf9aKGgKf9-14">
          <mxGeometry relative="1" as="geometry" />
        </mxCell>
        <mxCell id="KAnZ7Fa2tKtf9aKGgKf9-12" value="&lt;b&gt;DOM_XSS&lt;/b&gt;" style="whiteSpace=wrap;html=1;" vertex="1" parent="1">
          <mxGeometry x="450" y="170" width="60" height="20" as="geometry" />
        </mxCell>
        <mxCell id="KAnZ7Fa2tKtf9aKGgKf9-13" value="&lt;b&gt;Stored XSS&lt;/b&gt;" style="whiteSpace=wrap;html=1;" vertex="1" parent="1">
          <mxGeometry x="270" y="170" width="79" height="25" as="geometry" />
        </mxCell>
        <mxCell id="KAnZ7Fa2tKtf9aKGgKf9-14" value="&lt;font style=&quot;font-size: 12px;&quot;&gt;Source - entry point of attack eg. user input field&lt;/font&gt;&lt;div&gt;&lt;font style=&quot;font-size: 12px;&quot;&gt;Sink - Where payload is reflected eg. innerhtml&lt;/font&gt;&lt;/div&gt;" style="whiteSpace=wrap;html=1;" vertex="1" parent="1">
          <mxGeometry x="385" y="81.25" width="190" height="60" as="geometry" />
        </mxCell>
        <mxCell id="KAnZ7Fa2tKtf9aKGgKf9-15" value="" style="edgeStyle=orthogonalEdgeStyle;rounded=0;orthogonalLoop=1;jettySize=auto;html=1;entryX=0;entryY=0.5;entryDx=0;entryDy=0;" edge="1" parent="1" source="KAnZ7Fa2tKtf9aKGgKf9-18" target="KAnZ7Fa2tKtf9aKGgKf9-19">
          <mxGeometry relative="1" as="geometry" />
        </mxCell>
        <mxCell id="KAnZ7Fa2tKtf9aKGgKf9-16" value="" style="edgeStyle=orthogonalEdgeStyle;rounded=0;orthogonalLoop=1;jettySize=auto;html=1;" edge="1" parent="1" source="KAnZ7Fa2tKtf9aKGgKf9-18" target="KAnZ7Fa2tKtf9aKGgKf9-20">
          <mxGeometry relative="1" as="geometry" />
        </mxCell>
        <mxCell id="KAnZ7Fa2tKtf9aKGgKf9-17" value="" style="edgeStyle=orthogonalEdgeStyle;rounded=0;orthogonalLoop=1;jettySize=auto;html=1;" edge="1" parent="1" source="KAnZ7Fa2tKtf9aKGgKf9-18" target="KAnZ7Fa2tKtf9aKGgKf9-21">
          <mxGeometry relative="1" as="geometry" />
        </mxCell>
        <mxCell id="KAnZ7Fa2tKtf9aKGgKf9-18" value="CSRF" style="ellipse;whiteSpace=wrap;html=1;fillColor=#1ba1e2;fontColor=#ffffff;strokeColor=#006EAF;" vertex="1" parent="1">
          <mxGeometry x="510" y="335" width="40" height="30" as="geometry" />
        </mxCell>
        <mxCell id="KAnZ7Fa2tKtf9aKGgKf9-19" value="Double Submit Cookie(MITM &amp;amp; Sub-domain takeover issues)" style="whiteSpace=wrap;html=1;" vertex="1" parent="1">
          <mxGeometry x="550" y="280" width="140" height="50" as="geometry" />
        </mxCell>
        <mxCell id="KAnZ7Fa2tKtf9aKGgKf9-20" value="Signed Double Submit Cookie" style="whiteSpace=wrap;html=1;" vertex="1" parent="1">
          <mxGeometry x="570" y="335" width="120" height="30" as="geometry" />
        </mxCell>
        <mxCell id="KAnZ7Fa2tKtf9aKGgKf9-21" value="Ruby _method overirde" style="whiteSpace=wrap;html=1;" vertex="1" parent="1">
          <mxGeometry x="465" y="400" width="130" height="20" as="geometry" />
        </mxCell>
        <mxCell id="KAnZ7Fa2tKtf9aKGgKf9-22" value="" style="endArrow=classic;html=1;rounded=0;exitX=1;exitY=1;exitDx=0;exitDy=0;" edge="1" parent="1" source="KAnZ7Fa2tKtf9aKGgKf9-18" target="KAnZ7Fa2tKtf9aKGgKf9-23">
          <mxGeometry width="50" height="50" relative="1" as="geometry">
            <mxPoint x="390" y="350" as="sourcePoint" />
            <mxPoint x="630" y="400" as="targetPoint" />
          </mxGeometry>
        </mxCell>
        <mxCell id="KAnZ7Fa2tKtf9aKGgKf9-23" value="ActionScript-JSON based CSRF&lt;div&gt;Download swf, redirector script, location header has final URL&lt;/div&gt;" style="rounded=1;whiteSpace=wrap;html=1;" vertex="1" parent="1">
          <mxGeometry x="610" y="385" width="130" height="95" as="geometry" />
        </mxCell>
        <mxCell id="KAnZ7Fa2tKtf9aKGgKf9-24" value="" style="endArrow=classic;html=1;rounded=0;entryX=0;entryY=0.5;entryDx=0;entryDy=0;" edge="1" parent="1" target="KAnZ7Fa2tKtf9aKGgKf9-26">
          <mxGeometry width="50" height="50" relative="1" as="geometry">
            <mxPoint x="450" y="300" as="sourcePoint" />
            <mxPoint x="540" y="230" as="targetPoint" />
          </mxGeometry>
        </mxCell>
        <mxCell id="KAnZ7Fa2tKtf9aKGgKf9-25" value="" style="edgeStyle=orthogonalEdgeStyle;rounded=0;orthogonalLoop=1;jettySize=auto;html=1;" edge="1" parent="1" source="KAnZ7Fa2tKtf9aKGgKf9-26" target="KAnZ7Fa2tKtf9aKGgKf9-27">
          <mxGeometry relative="1" as="geometry" />
        </mxCell>
        <mxCell id="KAnZ7Fa2tKtf9aKGgKf9-26" value="Open Redirect" style="ellipse;whiteSpace=wrap;html=1;aspect=fixed;fillColor=#1ba1e2;fontColor=#ffffff;strokeColor=#006EAF;" vertex="1" parent="1">
          <mxGeometry x="620" y="220" width="50" height="50" as="geometry" />
        </mxCell>
        <mxCell id="KAnZ7Fa2tKtf9aKGgKf9-27" value="&lt;b&gt;Header Based&amp;nbsp;&lt;/b&gt;" style="whiteSpace=wrap;html=1;" vertex="1" parent="1">
          <mxGeometry x="710" y="210" width="90" height="15" as="geometry" />
        </mxCell>
        <mxCell id="KAnZ7Fa2tKtf9aKGgKf9-28" value="" style="endArrow=classic;html=1;rounded=0;exitX=1;exitY=0.5;exitDx=0;exitDy=0;entryX=0;entryY=0.5;entryDx=0;entryDy=0;" edge="1" parent="1" source="KAnZ7Fa2tKtf9aKGgKf9-26" target="KAnZ7Fa2tKtf9aKGgKf9-29">
          <mxGeometry width="50" height="50" relative="1" as="geometry">
            <mxPoint x="500" y="280" as="sourcePoint" />
            <mxPoint x="700" y="238" as="targetPoint" />
          </mxGeometry>
        </mxCell>
        <mxCell id="KAnZ7Fa2tKtf9aKGgKf9-29" value="&lt;b&gt;JS Based&amp;nbsp;&lt;/b&gt;" style="rounded=1;whiteSpace=wrap;html=1;" vertex="1" parent="1">
          <mxGeometry x="710" y="230" width="80" height="20" as="geometry" />
        </mxCell>
        <mxCell id="KAnZ7Fa2tKtf9aKGgKf9-30" value="" style="endArrow=classic;html=1;rounded=0;exitX=0.807;exitY=0.117;exitDx=0;exitDy=0;exitPerimeter=0;entryX=0;entryY=0.5;entryDx=0;entryDy=0;" edge="1" parent="1" source="KAnZ7Fa2tKtf9aKGgKf9-5" target="KAnZ7Fa2tKtf9aKGgKf9-32">
          <mxGeometry width="50" height="50" relative="1" as="geometry">
            <mxPoint x="500" y="250" as="sourcePoint" />
            <mxPoint x="650" y="150" as="targetPoint" />
          </mxGeometry>
        </mxCell>
        <mxCell id="KAnZ7Fa2tKtf9aKGgKf9-31" value="" style="edgeStyle=orthogonalEdgeStyle;rounded=0;orthogonalLoop=1;jettySize=auto;html=1;" edge="1" parent="1" source="KAnZ7Fa2tKtf9aKGgKf9-32" target="KAnZ7Fa2tKtf9aKGgKf9-33">
          <mxGeometry relative="1" as="geometry" />
        </mxCell>
        <mxCell id="KAnZ7Fa2tKtf9aKGgKf9-32" value="&lt;b&gt;CSP&lt;/b&gt;" style="ellipse;whiteSpace=wrap;html=1;aspect=fixed;fillColor=#1ba1e2;fontColor=#ffffff;strokeColor=#006EAF;" vertex="1" parent="1">
          <mxGeometry x="632.5" y="170" width="30" height="30" as="geometry" />
        </mxCell>
        <mxCell id="KAnZ7Fa2tKtf9aKGgKf9-33" value="&lt;font style=&quot;font-size: 8px;&quot;&gt;generated serverside, protects injection, xss, remote js loading. We can define source for various things using directives&lt;/font&gt;" style="whiteSpace=wrap;html=1;align=left;" vertex="1" parent="1">
          <mxGeometry x="700" y="141.25" width="120" height="58.75" as="geometry" />
        </mxCell>
        <mxCell id="KAnZ7Fa2tKtf9aKGgKf9-34" value="" style="endArrow=classic;html=1;rounded=0;entryX=0.083;entryY=0.658;entryDx=0;entryDy=0;entryPerimeter=0;" edge="1" parent="1" target="KAnZ7Fa2tKtf9aKGgKf9-36">
          <mxGeometry width="50" height="50" relative="1" as="geometry">
            <mxPoint x="430" y="290" as="sourcePoint" />
            <mxPoint x="650" y="150" as="targetPoint" />
          </mxGeometry>
        </mxCell>
        <mxCell id="KAnZ7Fa2tKtf9aKGgKf9-35" style="edgeStyle=orthogonalEdgeStyle;rounded=0;orthogonalLoop=1;jettySize=auto;html=1;entryX=0.5;entryY=1;entryDx=0;entryDy=0;" edge="1" parent="1" source="KAnZ7Fa2tKtf9aKGgKf9-36" target="KAnZ7Fa2tKtf9aKGgKf9-37">
          <mxGeometry relative="1" as="geometry" />
        </mxCell>
        <mxCell id="KAnZ7Fa2tKtf9aKGgKf9-36" value="&lt;font style=&quot;font-size: 8px;&quot;&gt;Race Condition&lt;/font&gt;" style="ellipse;whiteSpace=wrap;html=1;aspect=fixed;fillColor=#1ba1e2;fontColor=#ffffff;strokeColor=#006EAF;" vertex="1" parent="1">
          <mxGeometry x="650" y="111.25" width="40" height="40" as="geometry" />
        </mxCell>
        <mxCell id="KAnZ7Fa2tKtf9aKGgKf9-37" value="&lt;font style=&quot;font-size: 8px;&quot;&gt;Multiple Payment, Undelete cards, Submitting flags in CTF&lt;/font&gt;" style="whiteSpace=wrap;html=1;" vertex="1" parent="1">
          <mxGeometry x="700" y="81.25" width="120" height="30" as="geometry" />
        </mxCell>
        <mxCell id="KAnZ7Fa2tKtf9aKGgKf9-38" value="" style="edgeStyle=orthogonalEdgeStyle;rounded=0;orthogonalLoop=1;jettySize=auto;html=1;" edge="1" parent="1" source="KAnZ7Fa2tKtf9aKGgKf9-41" target="KAnZ7Fa2tKtf9aKGgKf9-42">
          <mxGeometry relative="1" as="geometry" />
        </mxCell>
        <mxCell id="KAnZ7Fa2tKtf9aKGgKf9-39" value="" style="edgeStyle=orthogonalEdgeStyle;rounded=0;orthogonalLoop=1;jettySize=auto;html=1;entryX=1;entryY=0.25;entryDx=0;entryDy=0;" edge="1" parent="1" source="KAnZ7Fa2tKtf9aKGgKf9-41" target="KAnZ7Fa2tKtf9aKGgKf9-43">
          <mxGeometry relative="1" as="geometry" />
        </mxCell>
        <mxCell id="KAnZ7Fa2tKtf9aKGgKf9-40" value="" style="edgeStyle=orthogonalEdgeStyle;rounded=0;orthogonalLoop=1;jettySize=auto;html=1;entryX=1;entryY=0.5;entryDx=0;entryDy=0;" edge="1" parent="1" source="KAnZ7Fa2tKtf9aKGgKf9-41" target="KAnZ7Fa2tKtf9aKGgKf9-44">
          <mxGeometry relative="1" as="geometry" />
        </mxCell>
        <mxCell id="KAnZ7Fa2tKtf9aKGgKf9-41" value="SSRF" style="ellipse;whiteSpace=wrap;html=1;aspect=fixed;fillColor=#1ba1e2;fontColor=#ffffff;strokeColor=#006EAF;" vertex="1" parent="1">
          <mxGeometry x="260" y="327.5" width="45" height="45" as="geometry" />
        </mxCell>
        <mxCell id="KAnZ7Fa2tKtf9aKGgKf9-42" value="open redirection used as bypass" style="whiteSpace=wrap;html=1;" vertex="1" parent="1">
          <mxGeometry x="77.5" y="335" width="120" height="30" as="geometry" />
        </mxCell>
        <mxCell id="KAnZ7Fa2tKtf9aKGgKf9-43" value="&lt;b&gt;Blind SSRF&lt;/b&gt;" style="rounded=1;whiteSpace=wrap;html=1;" vertex="1" parent="1">
          <mxGeometry x="77.5" y="390" width="120" height="20" as="geometry" />
        </mxCell>
        <mxCell id="KAnZ7Fa2tKtf9aKGgKf9-44" value="SSRF via referrer headers" style="rounded=1;whiteSpace=wrap;html=1;" vertex="1" parent="1">
          <mxGeometry x="77.5" y="288.75" width="120" height="32.5" as="geometry" />
        </mxCell>
      </root>
    </mxGraphModel>
  </diagram>
</mxfile>
